<!-- created by svgstack.com | Attribution is required. --><svg width="128" height="128" viewBox="0 0 128 128" fill="none" xmlns="http://www.w3.org/2000/svg"><path fill-rule="evenodd" clip-rule="evenodd" d="M52.0255 18.4153C57.5997 8.03856 72.1839 8.11789 77.6502 18.5546L82.4624 27.7425L93.4018 26.5626C104.418 25.3744 112.654 36.7064 108.383 47.1753L104.35 57.0591L112.998 65.2356C120.578 72.4021 117.754 85.2843 107.911 88.4441L96.61 92.0717L96.0055 104.123C95.4772 114.655 84.0405 120.677 75.3709 114.987L64.0996 107.59L52.4881 115.155C43.849 120.783 32.4867 114.823 31.8958 104.354L31.2 92.0241L20.1611 88.5504C10.1223 85.3915 7.35999 72.1767 15.2559 65.0846L23.8225 57.3901L19.7291 46.8323C15.689 36.4119 23.8814 25.3173 34.7704 26.4625L47.0111 27.7497L52.0255 18.4153ZM43.9575 33.4342L34.1747 32.4054C27.6413 31.7183 22.7259 38.3751 25.1499 44.6273L28.4772 53.2092L32.0846 49.9691C35.908 46.5349 39.1176 42.4441 41.569 37.8806L43.9575 33.4342ZM30.7622 59.1027L35.9301 54.4609C40.2634 50.5687 43.9009 45.9325 46.6792 40.7605L50.2588 34.0969L59.8061 35.1009C63.2158 35.4595 66.6526 35.4549 70.0614 35.0872L79.1754 34.1042L82.7938 41.0127C85.4012 45.9911 88.8014 50.4889 92.8543 54.3208L97.3941 58.613L95.0812 64.2815C92.8802 69.6757 91.6051 75.4187 91.3122 81.2574L90.9933 87.614L83.2507 90.0995C79.1007 91.4317 75.1398 93.3175 71.4701 95.7082L64.1111 100.503L57.0201 95.8489C53.2329 93.3635 49.1331 91.4175 44.8335 90.0645L36.7889 87.5331L36.3999 80.6405C36.0938 75.2166 34.9399 69.8781 32.9822 64.8287L30.7622 59.1027ZM26.1075 63.2836L19.1015 69.5764C14.6386 73.585 16.1999 81.0542 21.874 82.8397L30.8409 85.6614L30.577 80.9853C30.3069 76.1994 29.2888 71.489 27.5614 67.0337L26.1075 63.2836ZM37.148 93.8958L37.7187 104.009C38.0527 109.927 44.4749 113.295 49.3579 110.114L58.6855 104.037L53.8735 100.879C50.5318 98.6861 46.9143 96.9691 43.1206 95.7753L37.148 93.8958ZM69.5251 104.056L78.5175 109.957C83.4177 113.173 89.8819 109.769 90.1806 103.816L90.6741 93.9772L84.9951 95.8003C81.3332 96.9758 77.8384 98.6397 74.6004 100.749L69.5251 104.056ZM96.9292 85.7085L106.166 82.7433C111.73 80.9573 113.326 73.6761 109.042 69.6255L101.956 62.926L100.463 66.5852C98.5207 71.3448 97.3956 76.4122 97.1372 81.564L96.9292 85.7085ZM99.788 52.7461L103.001 44.8716C105.564 38.5902 100.623 31.791 94.0126 32.504L85.4405 33.4285L87.9335 38.1885C90.2342 42.5812 93.2344 46.5498 96.8105 49.9309L99.788 52.7461ZM76.1974 28.4182L69.4506 29.1459C66.4429 29.4703 63.4103 29.4743 60.4018 29.1579L53.3124 28.4124L57.1356 21.2952C60.4801 15.0692 69.2307 15.1168 72.5105 21.3788L76.1974 28.4182Z" fill="url(#paint0_linear_10019_749)"/><path fill-rule="evenodd" clip-rule="evenodd" d="M52.0255 18.4153C57.5997 8.03856 72.1839 8.11789 77.6502 18.5546L82.4624 27.7425L93.4018 26.5626C104.418 25.3744 112.654 36.7064 108.383 47.1753L104.35 57.0591L112.998 65.2356C120.578 72.4021 117.754 85.2843 107.911 88.4441L96.61 92.0717L96.0055 104.123C95.4772 114.655 84.0405 120.677 75.3709 114.987L64.0996 107.59L52.4881 115.155C43.849 120.783 32.4867 114.823 31.8958 104.354L31.2 92.0241L20.1611 88.5504C10.1223 85.3915 7.35999 72.1767 15.2559 65.0846L23.8225 57.3901L19.7291 46.8323C15.689 36.4119 23.8814 25.3173 34.7704 26.4625L47.0111 27.7497L52.0255 18.4153ZM43.9575 33.4342L34.1747 32.4054C27.6413 31.7183 22.7259 38.3751 25.1499 44.6273L28.4772 53.2092L32.0846 49.9691C35.908 46.5349 39.1176 42.4441 41.569 37.8806L43.9575 33.4342ZM30.7622 59.1027L35.9301 54.4609C40.2634 50.5687 43.9009 45.9325 46.6792 40.7605L50.2588 34.0969L59.8061 35.1009C63.2158 35.4595 66.6526 35.4549 70.0614 35.0872L79.1754 34.1042L82.7938 41.0127C85.4012 45.9911 88.8014 50.4889 92.8543 54.3208L97.3941 58.613L95.0812 64.2815C92.8802 69.6757 91.6051 75.4187 91.3122 81.2574L90.9933 87.614L83.2507 90.0995C79.1007 91.4317 75.1398 93.3175 71.4701 95.7082L64.1111 100.503L57.0201 95.8489C53.2329 93.3635 49.1331 91.4175 44.8335 90.0645L36.7889 87.5331L36.3999 80.6405C36.0938 75.2166 34.9399 69.8781 32.9822 64.8287L30.7622 59.1027ZM26.1075 63.2836L19.1015 69.5764C14.6386 73.585 16.1999 81.0542 21.874 82.8397L30.8409 85.6614L30.577 80.9853C30.3069 76.1994 29.2888 71.489 27.5614 67.0337L26.1075 63.2836ZM37.148 93.8958L37.7187 104.009C38.0527 109.927 44.4749 113.295 49.3579 110.114L58.6855 104.037L53.8735 100.879C50.5318 98.6861 46.9143 96.9691 43.1206 95.7753L37.148 93.8958ZM69.5251 104.056L78.5175 109.957C83.4177 113.173 89.8819 109.769 90.1806 103.816L90.6741 93.9772L84.9951 95.8003C81.3332 96.9758 77.8384 98.6397 74.6004 100.749L69.5251 104.056ZM96.9292 85.7085L106.166 82.7433C111.73 80.9573 113.326 73.6761 109.042 69.6255L101.956 62.926L100.463 66.5852C98.5207 71.3448 97.3956 76.4122 97.1372 81.564L96.9292 85.7085ZM99.788 52.7461L103.001 44.8716C105.564 38.5902 100.623 31.791 94.0126 32.504L85.4405 33.4285L87.9335 38.1885C90.2342 42.5812 93.2344 46.5498 96.8105 49.9309L99.788 52.7461ZM76.1974 28.4182L69.4506 29.1459C66.4429 29.4703 63.4103 29.4743 60.4018 29.1579L53.3124 28.4124L57.1356 21.2952C60.4801 15.0692 69.2307 15.1168 72.5105 21.3788L76.1974 28.4182Z" fill="url(#paint1_linear_10019_749)"/><defs><linearGradient id="paint0_linear_10019_749" x1="92.4371" y1="19.7683" x2="39.4025" y2="113.889" gradientUnits="userSpaceOnUse"><stop stop-color="#FF1080"/><stop offset="0.963543" stop-color="#42C4FF"/></linearGradient><linearGradient id="paint1_linear_10019_749" x1="33.785" y1="24.0097" x2="118.659" y2="86.1032" gradientUnits="userSpaceOnUse"><stop stop-color="#FF9124"/><stop offset="0.225429" stop-color="#FF9798" stop-opacity="0.519085"/><stop offset="0.375" stop-color="#EE988B" stop-opacity="0.2"/><stop offset="0.515" stop-color="#ED90A9" stop-opacity="0"/><stop offset="0.610586" stop-color="#EC88C5" stop-opacity="0.2"/><stop offset="1" stop-color="#EA7AFA"/></linearGradient></defs></svg> 