<?xml version="1.0" encoding="UTF-8" standalone="no" ?>
<!DOCTYPE svg PUBLIC "-//W3C//DTD SVG 1.1//EN" "http://www.w3.org/Graphics/SVG/1.1/DTD/svg11.dtd">
<svg xmlns="http://www.w3.org/2000/svg" xmlns:xlink="http://www.w3.org/1999/xlink" version="1.1" width="500" height="500" viewBox="0 0 500 500" xml:space="preserve">
<!-- Created with SVG Stack Editor - https://svgstack.com -->
<defs>
</defs>
<rect x="0" y="0" width="100%" height="100%" fill="transparent"></rect>
<g transform="matrix(3.92 0 0 3.92 250 250)"  >
<g style=""   >
		<g transform="matrix(1 0 0 1 0 0)" id="path_0"  >
<path style="stroke: none; stroke-width: 1; stroke-dasharray: none; stroke-linecap: butt; stroke-dashoffset: 0; stroke-linejoin: miter; stroke-miterlimit: 4; fill: rgb(0,0,0); fill-rule: nonzero; opacity: 1;"  transform=" translate(-64, -64)" d="M 32.2884 31.429 C 46.1714 17.568 66.6183 14.0728 83.6966 21.095 C 87.4749 22.4973 90.7681 24.4926 93.3372 26.3479 L 79.0755 32.928 C 65.7972 27.3622 50.586 31.1483 41.3021 40.425 C 28.9431 52.7632 26.2921 74.0177 40.2474 88.0754 L 40.9134 88.7502 L 0.743469 124.606 C 3.29118 121.1 6.4545 117.788 9.60675 114.477 C 18.5022 105.135 27.3325 95.8805 21.9456 82.7961 C 14.7343 65.289 18.9344 44.7723 32.2884 31.429 Z M 126.318 4.69946 C 113.093 22.8968 106.637 31.7958 111.819 54.0598 L 111.786 54.0276 C 115.36 69.1829 111.538 85.9891 99.1985 98.3186 C 83.6421 113.873 58.748 117.335 38.2474 103.334 L 52.5403 96.7219 C 65.6244 101.856 79.9399 99.602 90.2278 89.3225 C 100.516 79.0427 102.826 64.0702 97.6556 51.6116 C 96.673 49.2491 93.7255 48.6553 91.6634 50.176 L 49.5931 81.2102 L 109.854 20.7288 L 109.854 20.7825 L 127.256 3.3938 C 126.943 3.83601 126.63 4.26804 126.318 4.69946 Z" stroke-linecap="round" />
</g>
</g>
</g>
<g transform="matrix(3.92 0 0 3.92 250 250)"  >
<g style=""   >
		<g transform="matrix(1 0 0 1 0 0)" id="path_0"  >
<path style="stroke: none; stroke-width: 1; stroke-dasharray: none; stroke-linecap: butt; stroke-dashoffset: 0; stroke-linejoin: miter; stroke-miterlimit: 4; fill: rgb(0,0,0); fill-rule: nonzero; opacity: 1;"  transform=" translate(-64, -64)" d="M 32.2884 31.429 C 46.1714 17.568 66.6183 14.0728 83.6966 21.095 C 87.4749 22.4973 90.7681 24.4926 93.3372 26.3479 L 79.0755 32.928 C 65.7972 27.3622 50.586 31.1483 41.3021 40.425 C 28.9431 52.7632 26.2921 74.0177 40.2474 88.0754 L 40.9134 88.7502 L 0.743469 124.606 C 3.29118 121.1 6.4545 117.788 9.60675 114.477 C 18.5022 105.135 27.3325 95.8805 21.9456 82.7961 C 14.7343 65.289 18.9344 44.7723 32.2884 31.429 Z M 126.318 4.69946 C 113.093 22.8968 106.637 31.7958 111.819 54.0598 L 111.786 54.0276 C 115.36 69.1829 111.538 85.9891 99.1985 98.3186 C 83.6421 113.873 58.748 117.335 38.2474 103.334 L 52.5403 96.7219 C 65.6244 101.856 79.9399 99.602 90.2278 89.3225 C 100.516 79.0427 102.826 64.0702 97.6556 51.6116 C 96.673 49.2491 93.7255 48.6553 91.6634 50.176 L 49.5931 81.2102 L 109.854 20.7288 L 109.854 20.7825 L 127.256 3.3938 C 126.943 3.83601 126.63 4.26804 126.318 4.69946 Z" stroke-linecap="round" />
</g>
</g>
</g>
</svg>